<?xml version="1.0" encoding="UTF-8"?>
<svg width="582px" height="998px" viewBox="0 0 582 998" version="1.1" xmlns="http://www.w3.org/2000/svg" xmlns:xlink="http://www.w3.org/1999/xlink">
    <title>Path</title>
    <g id="Page-1" stroke="none" stroke-width="1" fill="none" fill-rule="evenodd">
        <g id="icon-angle-left" fill="#FFFFFF" fill-rule="nonzero">
            <path d="M582,83 C582,91.6666667 578.666667,99.3333333 572,106 L179,499 L572,892 C578.666667,898.666667 582,906.333333 582,915 C582,923.666667 578.666667,931.333333 572,938 L522,988 C515.333333,994.666667 507.666667,998 499,998 C490.333333,998 482.666667,994.666667 476,988 L10,522 C3.33333333,515.333333 0,507.666667 0,499 C0,490.333333 3.33333333,482.666667 10,476 L476,10 C482.666667,3.33333333 490.333333,0 499,0 C507.666667,0 515.333333,3.33333333 522,10 L572,60 C578.666667,66.6666667 582,74.3333333 582,83 Z" id="Path"></path>
        </g>
    </g>
</svg>